# xmcd
#
# Track frame offsets:
#	150
#	18457
#	33797
#	51027
#	69191
#	83393
#	101534
#	119914
#	135715
#	152386
#	166431
#	182933
#	200184
#	213250
#	231271
#
# Disc length: 3235 seconds
#
# Revision: 1
# Processed by: cddbd v1.5.2PL0 Copyright (c) Steve Scherf et al.
# Submitted via: audiograbber 1.83.01
#
DISCID=c70ca10f
DTITLE=Various Artist - Hitz Country 2003 Vol 7
DYEAR=2003
DGENRE=Country
TTITLE0=Toby Keith - I Love This Bar
TTITLE1=Reba Mcentire - I'm Gonna Take That Mountain
TTITLE2=Lonestar - Walking In Memphis
TTITLE3=Montgomery Gentry - Hell Yeah
TTITLE4=Diamond Rio - Wrinkles
TTITLE5=Jimmy Wayne - I Love You This Much
TTITLE6=Ryan Tyler - Run, Run, Run
TTITLE7=Roxie Dean - Everyday Girl
TTITLE8=Rebecca Lynn Howard - What A Shame
TTITLE9=Phil Vassar - Ultimate Love
TTITLE10=Sammy Kershaw - I've Never Been Anywhere
TTITLE11=James Otto - Days Of Our Lives
TTITLE12=Terri Clark - I Wanna Do It All
TTITLE13=Mark Wills - And The Crowd Goes Wild
TTITLE14=Merle Haggard - That's The News
EXTD=
EXTT0=
EXTT1=
EXTT2=
EXTT3=
EXTT4=
EXTT5=
EXTT6=
EXTT7=
EXTT8=
EXTT9=
EXTT10=
EXTT11=
EXTT12=
EXTT13=
EXTT14=
PLAYORDER=
